<svg width="81" height="97" viewBox="0 0 81 97" fill="none" xmlns="http://www.w3.org/2000/svg">
<path d="M27.7961 55.417V24.8195C27.7961 21.4909 26.1318 19.1865 21.779 19.1865C17.4263 19.1865 15.762 21.4909 15.762 24.8195V70.1396" stroke="white" stroke-width="2" stroke-miterlimit="10"/>
<path d="M49.944 60.4098V49.3999C49.944 44.791 48.7918 41.7185 44.6951 41.3344C41.2385 40.9504 39.4462 42.3586 39.4462 42.3586" stroke="white" stroke-width="2" stroke-miterlimit="10"/>
<path d="M49.9441 47.4794C56.0892 46.4552 58.0095 49.7838 58.2655 55.1607C58.6496 60.5377 58.7776 63.3542 58.7776 70.1394C58.7776 86.3983 49.816 95.7439 49.816 95.7439" stroke="white" stroke-width="2" stroke-miterlimit="10"/>
<path d="M15.2498 51.1919C14.6097 50.9359 12.6894 50.8079 11.4091 50.8079C8.33659 50.8079 6.03218 53.2403 5.64811 57.465C5.64811 57.465 5.008 61.9458 5.008 67.8349C4.87998 75.3882 6.28823 78.8448 9.23275 83.1976C13.3295 89.2147 22.035 95.9999 22.035 95.9999" stroke="white" stroke-width="2" stroke-miterlimit="10"/>
<path d="M39.9582 56.569V46.3272C39.9582 41.7184 38.678 37.4937 33.9411 37.4937C29.8444 37.4937 27.9241 38.5178 27.9241 38.5178" stroke="white" stroke-width="2" stroke-miterlimit="10"/>
<path d="M7.69641 22.0028C7.69641 14.3215 13.9695 8.04834 21.6509 8.04834C29.3323 8.04834 35.6054 14.3215 35.6054 22.0028" stroke="#7CB2DE" stroke-width="2" stroke-miterlimit="10"/>
<path d="M1 22C1 10.4404 10.2156 1 21.5 1C32.7844 1 42 10.4404 42 22" stroke="#7CB2DE" stroke-width="2" stroke-miterlimit="10"/>
</svg>
