<svg width="85" height="107" viewBox="0 0 85 107" fill="none" xmlns="http://www.w3.org/2000/svg">
<path d="M37.6024 45.5L41.2364 29.106C41.9567 25.8562 44.0803 23.9666 48.3299 24.9086C52.5795 25.8506 53.7057 28.4606 52.9853 31.7103L49.6745 46.6465" stroke="#979797" stroke-width="2" stroke-miterlimit="10"/>
<path d="M66.9066 71.2503L69.2893 60.5012C70.2867 56.0016 69.8268 52.7526 65.9102 51.491C62.6187 50.368 60.564 51.355 60.564 51.355" stroke="#979797" stroke-width="2" stroke-miterlimit="10"/>
<path d="M69.7046 58.6265C75.9258 58.9564 77.0802 62.6217 76.1666 67.9267C75.3779 73.2593 74.8934 76.0368 73.425 82.6612C69.9063 98.5348 59.1346 105.72 59.1346 105.72" stroke="#979797" stroke-width="2" stroke-miterlimit="10"/>
<path d="M50.1463 45.1117C50.1463 45.1117 52.2428 44.5274 56.2424 45.414C60.2317 46.2983 61.0294 49.6951 60.5331 53.5" stroke="#979797" stroke-width="2" stroke-miterlimit="10"/>
<path d="M31.2949 61.9734L20.6705 33.2797C19.5147 30.1582 17.1538 28.5751 13.0719 30.0865C8.98994 31.5979 8.22936 34.3368 9.38515 37.4583L25.1216 79.9585" stroke="white" stroke-width="2" stroke-miterlimit="10"/>
<path d="M53.7988 58.965L49.9758 48.6401C48.3755 44.318 46.2281 41.8367 42.2529 42.8991C38.878 43.7391 37.6862 45.6821 37.6862 45.6821" stroke="white" stroke-width="2" stroke-miterlimit="10"/>
<path d="M49.3087 46.8392C54.7158 43.745 57.6725 46.1997 59.7796 51.1531C62.0068 56.0622 63.1049 58.659 65.4609 65.022C71.1065 80.2693 65.9475 92.1452 65.9475 92.1452" stroke="white" stroke-width="2" stroke-miterlimit="10"/>
<path d="M18.0625 62.3678C17.3733 62.3499 15.528 62.8967 14.3274 63.3412C11.446 64.4081 10.1296 67.4893 11.2364 71.5846C11.2364 71.5846 12.192 76.0088 14.2368 81.5315C16.7395 88.6593 19.2604 91.4119 23.5331 94.4714C29.4642 98.6916 39.9842 102.032 39.9842 102.032" stroke="white" stroke-width="2" stroke-miterlimit="10"/>
<path d="M43.1007 58.8305L39.5444 49.2259C37.9441 44.9039 35.2766 41.3865 30.8345 43.0313C26.9926 44.4538 25.5474 46.0811 25.5474 46.0811" stroke="white" stroke-width="2" stroke-miterlimit="10"/>
<path d="M1 35.9545C1 28.2731 7.27312 22 14.9545 22C22.6358 22 28.909 28.2731 28.909 35.9545" stroke="#7CB2DE" stroke-width="2" stroke-miterlimit="10"/>
<path d="M13.4999 8C13.4999 8 22.4999 1 32.9999 1C42.0021 1 50.9999 8 50.9999 8" stroke="#7CB2DE" stroke-width="2" stroke-miterlimit="10"/>
<path d="M18.9089 10.2377L12.3394 8.52145L14.2302 1.99999" stroke="#7CB2DE" stroke-width="2" stroke-miterlimit="10"/>
<path d="M49.9357 2.02783L52.2859 8.30091L46.0129 10.6512" stroke="#7CB2DE" stroke-width="2" stroke-miterlimit="10"/>
</svg>
