<svg width="77" height="93" viewBox="0 0 77 93" fill="none" xmlns="http://www.w3.org/2000/svg">
<path d="M23.796 51.417V20.8195C23.796 17.4909 22.1317 15.1865 17.779 15.1865C13.4262 15.1865 11.7619 17.4909 11.7619 20.8195V66.1396" stroke="white" stroke-width="2" stroke-miterlimit="10"/>
<path d="M45.944 56.4098V45.3999C45.944 40.791 44.7918 37.7185 40.695 37.3344C37.2384 36.9504 35.4461 38.3586 35.4461 38.3586" stroke="white" stroke-width="2" stroke-miterlimit="10"/>
<path d="M45.9441 43.4794C52.0892 42.4552 54.0096 45.7838 54.2656 51.1607C54.6497 56.5377 54.7777 59.3542 54.7777 66.1394C54.7777 82.3983 45.8161 91.7439 45.8161 91.7439" stroke="white" stroke-width="2" stroke-miterlimit="10"/>
<path d="M11.2498 47.1919C10.6097 46.9359 8.68937 46.8079 7.40914 46.8079C4.33659 46.8079 2.03218 49.2403 1.64811 53.465C1.64811 53.465 1.008 57.9458 1.008 63.8349C0.879979 71.3882 2.28823 74.8448 5.23275 79.1976C9.32948 85.2147 18.035 91.9999 18.035 91.9999" stroke="white" stroke-width="2" stroke-miterlimit="10"/>
<path d="M35.9582 52.569V42.3272C35.9582 37.7184 34.678 33.4937 29.9411 33.4937C25.8444 33.4937 23.9241 34.5178 23.9241 34.5178" stroke="white" stroke-width="2" stroke-miterlimit="10"/>
<path d="M62.5869 3.15234V26.3245" stroke="#7CB2DE" stroke-width="2" stroke-miterlimit="10"/>
<path d="M57.85 6.73684L62.5869 2L67.3237 6.73684" stroke="#7CB2DE" stroke-width="2" stroke-miterlimit="10"/>
<path d="M67.3237 22.7397L62.5869 27.4766L57.85 22.7397" stroke="#7CB2DE" stroke-width="2" stroke-miterlimit="10"/>
<path d="M51.0648 14.8022H74.1089" stroke="#7CB2DE" stroke-width="2" stroke-miterlimit="10"/>
<path d="M54.6494 19.5391L49.7845 14.8023L54.6494 10.0654" stroke="#7CB2DE" stroke-width="2" stroke-miterlimit="10"/>
<path d="M70.5242 10.0654L75.261 14.8023L70.5242 19.5391" stroke="#7CB2DE" stroke-width="2" stroke-miterlimit="10"/>
<path d="M3.69641 18.0028C3.69641 10.3215 9.96953 4.04834 17.6509 4.04834C25.3323 4.04834 31.6054 10.3215 31.6054 18.0028" stroke="#7CB2DE" stroke-width="2" stroke-miterlimit="10"/>
</svg>
