<svg width="77" height="93" viewBox="0 0 77 93" fill="none" xmlns="http://www.w3.org/2000/svg">
<path d="M1.05481 21.7027C1.05481 10.7568 10.4197 2 21.8371 2C33.2546 2 42.6194 10.7568 42.6194 21.7027" stroke="#7CB2DE" stroke-width="2" stroke-miterlimit="10"/>
<path d="M24.1543 57.2163L21.7169 24.5001C21.5886 21.7028 20.8189 18.419 16.4572 18.2974C11.9672 18.1758 10.6843 21.8244 10.6843 25.1082L11.7106 67.4326" stroke="white" stroke-width="2" stroke-miterlimit="10"/>
<path d="M46.0912 58.0676V45.9054C46.0912 41.527 44.9367 38.6081 40.8315 38.2432C37.3678 37.8784 35.5718 39.2162 35.5718 39.2162" stroke="white" stroke-width="2" stroke-miterlimit="10"/>
<path d="M46.0911 45.9054C52.2489 44.9325 54.1732 48.0946 54.4297 53.2027C54.8146 58.3108 54.9429 60.9865 54.9429 67.4325C54.9429 82.8784 45.9629 91.7568 45.9629 91.7568" stroke="white" stroke-width="2" stroke-miterlimit="10"/>
<path d="M11.3257 49.4325C10.6843 49.1893 8.75998 49.0676 7.47712 49.0676C4.39826 49.0676 2.08911 51.3784 1.70426 55.392C1.70426 55.392 1.06283 59.6487 1.06283 65.2433C0.934542 72.419 2.34567 75.7028 5.29625 79.8379C9.4014 85.5541 18.1248 92.0001 18.1248 92.0001" stroke="white" stroke-width="2" stroke-miterlimit="10"/>
<path d="M36.0848 54.5407L34.8019 22.7975C34.6736 19.2704 35.4433 14.2839 30.4402 13.5542C25.8219 12.8245 23.7693 15.9866 23.5128 19.5137C23.2562 23.0407 24.1542 55.6353 24.1542 55.6353" stroke="white" stroke-width="2" stroke-miterlimit="10"/>
<path d="M62.6318 3.09473V25.1083" stroke="#7CB2DE" stroke-width="2" stroke-miterlimit="10"/>
<path d="M57.7573 6.5L62.6322 2L67.3788 6.5" stroke="#7CB2DE" stroke-width="2" stroke-miterlimit="10"/>
<path d="M67.3786 21.7026L62.632 26.2026L57.8854 21.7026" stroke="#7CB2DE" stroke-width="2" stroke-miterlimit="10"/>
<path d="M50.9581 14.0405H74.1778" stroke="#7CB2DE" stroke-width="2" stroke-miterlimit="10"/>
<path d="M54.5501 18.5405L49.8035 14.0405L54.5501 9.54053" stroke="#7CB2DE" stroke-width="2" stroke-miterlimit="10"/>
<path d="M70.5861 9.54053L75.3327 14.0405L70.5861 18.5405" stroke="#7CB2DE" stroke-width="2" stroke-miterlimit="10"/>
</svg>
