<svg width="84" height="89" viewBox="0 0 84 89" fill="none" xmlns="http://www.w3.org/2000/svg">
<g clip-path="url(#clip0_361_2814)">
<path d="M35.56 19.7C34.0591 17.676 33.2555 15.2197 33.27 12.7C33.2726 9.5854 34.5117 6.59931 36.715 4.39792C38.9183 2.19653 41.9054 0.95996 45.02 0.959961C46.5617 0.959961 48.0883 1.26362 49.5127 1.85361C50.937 2.44361 52.2313 3.30837 53.3214 4.39853C54.4116 5.48869 55.2763 6.7829 55.8663 8.20726C56.4563 9.63162 56.76 11.1582 56.76 12.7C56.7628 15.1003 56.0261 17.4432 54.65 19.41" stroke="#7CB2DE" stroke-width="2" stroke-miterlimit="10"/>
<path d="M10.7301 58.6099C8.25737 58.189 5.98745 56.9786 4.26009 55.1599C2.10883 52.9097 0.938443 49.8978 1.00594 46.7854C1.07344 43.6731 2.37328 40.7147 4.62007 38.5599C6.87026 36.4086 9.8822 35.2382 12.9946 35.3057C16.1069 35.3732 19.0653 36.6731 21.2201 38.9199C22.8792 40.6519 23.968 42.8505 24.3401 45.2199" stroke="#7CB2DE" stroke-width="2" stroke-miterlimit="10"/>
<path d="M51.2799 47.6699V17.0699C51.2799 13.7399 49.6099 11.4399 45.2799 11.4399C40.9499 11.4399 39.2799 13.7399 39.2799 17.0699V42.3899C39.2799 42.3899 39.8799 48.8299 35.5599 51.6799C31.2399 54.5299 28.4799 52.8899 26.4899 51.4199C24.4999 49.9499 17.8599 45.1199 17.8599 45.1199C16.682 44.3779 15.2644 44.1156 13.8989 44.3872C12.5335 44.6588 11.3242 45.4436 10.5199 46.5799C7.41987 50.7299 11.4699 54.0899 11.4699 54.0899C11.4699 54.0899 28.0199 76.0899 33.2299 80.5499C37.0373 83.5874 41.2862 86.0255 45.8299 87.7799" stroke="white" stroke-width="2" stroke-miterlimit="10"/>
<path d="M73.4299 52.66V41.66C73.4299 37.05 72.2699 33.98 68.1799 33.6C66.3665 33.2735 64.4964 33.6297 62.9299 34.6" stroke="white" stroke-width="2" stroke-miterlimit="10"/>
<path d="M63.4399 48.8199V38.5799C63.4399 33.9699 62.1599 29.7399 57.4399 29.7399C55.3903 29.6208 53.3401 29.9625 51.4399 30.7399" stroke="white" stroke-width="2" stroke-miterlimit="10"/>
<path d="M73.66 41.76C79.82 40.76 81.75 43.95 82 49.05C82.25 54.15 82.52 56.84 82.52 63.28C82.52 78.73 73.52 87.61 73.52 87.61" stroke="white" stroke-width="2" stroke-miterlimit="10"/>
<path d="M24.9699 11.3101L9.36987 26.8501" stroke="#7CB2DE" stroke-width="2" stroke-miterlimit="10"/>
<path d="M19.0801 10.24L25.7101 10.51L25.8801 17.04" stroke="#7CB2DE" stroke-width="2" stroke-miterlimit="10"/>
<path d="M15.1299 27.7901L8.5899 27.6201L8.41992 21.0801" stroke="#7CB2DE" stroke-width="2" stroke-miterlimit="10"/>
</g>
<defs>
<clipPath id="clip0_361_2814">
<rect width="83.52" height="88.72" fill="white"/>
</clipPath>
</defs>
</svg>
