<svg width="77" height="93" viewBox="0 0 77 93" fill="none" xmlns="http://www.w3.org/2000/svg">
<path d="M23.7961 51.417V20.8195C23.7961 17.4909 22.1318 15.1865 17.779 15.1865C13.4263 15.1865 11.762 17.4909 11.762 20.8195V66.1396" stroke="white" stroke-width="2" stroke-miterlimit="10"/>
<path d="M45.9439 56.4098V45.3999C45.9439 40.791 44.7917 37.7185 40.695 37.3344C37.2384 36.9504 35.446 38.3586 35.446 38.3586" stroke="white" stroke-width="2" stroke-miterlimit="10"/>
<path d="M45.9442 43.4794C52.0893 42.4552 54.0096 45.7838 54.2657 51.1607C54.6497 56.5377 54.7778 59.3542 54.7778 66.1394C54.7778 82.3983 45.8162 91.7439 45.8162 91.7439" stroke="white" stroke-width="2" stroke-miterlimit="10"/>
<path d="M11.2498 47.1919C10.6097 46.9359 8.68937 46.8079 7.40914 46.8079C4.33659 46.8079 2.03218 49.2403 1.64811 53.465C1.64811 53.465 1.008 57.9458 1.008 63.8349C0.879979 71.3882 2.28823 74.8448 5.23275 79.1976C9.32948 85.2147 18.035 91.9999 18.035 91.9999" stroke="white" stroke-width="2" stroke-miterlimit="10"/>
<path d="M35.9582 52.569V42.3272C35.9582 37.7184 34.678 33.4937 29.9411 33.4937C25.8444 33.4937 23.9241 34.5178 23.9241 34.5178" stroke="white" stroke-width="2" stroke-miterlimit="10"/>
<path d="M3.69653 18.0028C3.69653 10.3215 9.96965 4.04834 17.651 4.04834C25.3324 4.04834 31.6055 10.3215 31.6055 18.0028" stroke="#7CB2DE" stroke-width="2" stroke-miterlimit="10"/>
</svg>
